<svg width="137" height="51" viewBox="0 0 137 51" fill="none" xmlns="http://www.w3.org/2000/svg">
<path d="M8.428 27.252C7.66267 27.252 6.916 27.14 6.188 26.916C5.46933 26.692 4.70867 26.342 3.906 25.866L2.8 27H2.226L1.708 19.902L2.464 19.748C3.024 21.9413 3.76133 23.5327 4.676 24.522C5.6 25.5113 6.818 26.006 8.33 26.006C9.59933 26.006 10.6027 25.7027 11.34 25.096C12.0773 24.48 12.446 23.6493 12.446 22.604C12.446 21.7827 12.1893 21.05 11.676 20.406C11.172 19.7527 10.3413 19.0993 9.184 18.446L7.042 17.312C5.29667 16.3693 4.046 15.4313 3.29 14.498C2.534 13.5647 2.156 12.4773 2.156 11.236C2.156 10.116 2.43133 9.11733 2.982 8.24C3.53267 7.35333 4.284 6.658 5.236 6.154C6.19733 5.64067 7.27533 5.384 8.47 5.384C10.1033 5.384 11.5267 5.958 12.74 7.106L13.594 5.65H14.196L14.448 11.768H13.65C13.2113 10.0227 12.5767 8.73467 11.746 7.904C10.9247 7.064 9.87467 6.644 8.596 6.644C7.56 6.644 6.73867 6.91933 6.132 7.47C5.53467 8.02067 5.236 8.77667 5.236 9.738C5.236 10.606 5.52067 11.3807 6.09 12.062C6.66867 12.7433 7.63933 13.4433 9.002 14.162L11.088 15.282C12.516 16.038 13.5473 16.878 14.182 17.802C14.826 18.726 15.148 19.7853 15.148 20.98C15.148 22.1653 14.8493 23.234 14.252 24.186C13.664 25.1287 12.8613 25.8753 11.844 26.426C10.836 26.9767 9.69733 27.252 8.428 27.252ZM31.4337 27V26.328L33.9117 25.768V6.882L31.4337 6.35V5.678H39.5117V6.392L37.0617 6.882V25.768L39.5117 26.356V27H31.4337ZM17.9937 27V26.328L20.4857 25.768V6.882L17.9937 6.35V5.678H26.0857V6.35L23.6357 6.882V25.768L26.0857 26.328V27H17.9937ZM22.3057 16.36V15.184H35.2977V16.36H22.3057ZM41.9742 27V26.328L44.4662 25.768V6.882L41.9742 6.35V5.678H50.0662V6.35L47.6162 6.882V25.768L50.0662 26.328V27H41.9742ZM52.6129 27V26.328L54.9929 25.768V6.882L52.6129 6.35V5.678H60.7749V6.35L58.1429 6.882V25.838H65.9969C66.5009 24.9887 66.9349 24.1347 67.2989 23.276C67.6629 22.4173 68.0129 21.456 68.3489 20.392H69.1749L68.1249 27H52.6129ZM81.2785 27.294C79.8039 27.294 78.4459 27.0187 77.2045 26.468C75.9725 25.908 74.8992 25.1333 73.9845 24.144C73.0792 23.1453 72.3745 21.9833 71.8705 20.658C71.3759 19.3233 71.1285 17.8813 71.1285 16.332C71.1285 14.7733 71.3759 13.3313 71.8705 12.006C72.3745 10.6807 73.0792 9.52333 73.9845 8.534C74.8992 7.53533 75.9725 6.76067 77.2045 6.21C78.4459 5.65933 79.8039 5.384 81.2785 5.384C82.7532 5.384 84.1112 5.65933 85.3525 6.21C86.5939 6.76067 87.6672 7.53533 88.5725 8.534C89.4872 9.52333 90.1965 10.6807 90.7005 12.006C91.2045 13.3313 91.4565 14.7733 91.4565 16.332C91.4565 17.8813 91.2045 19.3233 90.7005 20.658C90.1965 21.9833 89.4872 23.1453 88.5725 24.144C87.6672 25.1333 86.5939 25.908 85.3525 26.468C84.1112 27.0187 82.7532 27.294 81.2785 27.294ZM81.2785 25.978C82.1092 25.978 82.8605 25.8287 83.5325 25.53C84.2139 25.2313 84.8112 24.802 85.3245 24.242C85.8472 23.6727 86.2859 22.9913 86.6405 22.198C86.9952 21.4047 87.2612 20.5087 87.4385 19.51C87.6159 18.5113 87.7045 17.4287 87.7045 16.262C87.7045 15.114 87.6159 14.05 87.4385 13.07C87.2612 12.0807 86.9999 11.194 86.6545 10.41C86.3092 9.626 85.8752 8.95867 85.3525 8.408C84.8392 7.848 84.2419 7.42333 83.5605 7.134C82.8885 6.83533 82.1372 6.686 81.3065 6.686C80.4759 6.686 79.7199 6.83533 79.0385 7.134C78.3572 7.42333 77.7552 7.848 77.2325 8.408C76.7192 8.968 76.2852 9.64467 75.9305 10.438C75.5852 11.222 75.3239 12.1087 75.1465 13.098C74.9692 14.0873 74.8805 15.1607 74.8805 16.318C74.8805 17.4753 74.9692 18.5487 75.1465 19.538C75.3239 20.5273 75.5852 21.4187 75.9305 22.212C76.2852 23.0053 76.7192 23.682 77.2325 24.242C77.7459 24.802 78.3385 25.2313 79.0105 25.53C79.6919 25.8287 80.4479 25.978 81.2785 25.978ZM101.855 27.294L94.533 8.044C94.3837 7.624 94.211 7.302 94.015 7.078C93.8284 6.84467 93.5577 6.67667 93.203 6.574C92.8484 6.47133 92.349 6.39667 91.705 6.35V5.678H101.015V6.35C100.026 6.406 99.3117 6.48067 98.873 6.574C98.4437 6.658 98.2057 6.81667 98.159 7.05C98.1217 7.274 98.187 7.63333 98.355 8.128L103.059 21.666L103.227 21.652L107.525 9.374C107.768 8.702 107.856 8.17 107.791 7.778C107.726 7.386 107.464 7.08267 107.007 6.868C106.559 6.65333 105.873 6.48067 104.949 6.35V5.678H112.845V6.35C111.884 6.49 111.156 6.672 110.661 6.896C110.176 7.12 109.812 7.43267 109.569 7.834C109.326 8.226 109.088 8.758 108.855 9.43L102.429 27.294H101.855ZM109.36 27V26.328C110.321 26.1693 111.045 25.978 111.53 25.754C112.015 25.5207 112.379 25.208 112.622 24.816C112.865 24.4147 113.103 23.8873 113.336 23.234L118.698 8.408L117.914 6.63L120.826 5.118L128.218 24.62C128.377 25.0493 128.549 25.376 128.736 25.6C128.932 25.824 129.207 25.9873 129.562 26.09C129.917 26.1927 130.416 26.272 131.06 26.328V27H121.904V26.328C122.809 26.272 123.486 26.2067 123.934 26.132C124.382 26.048 124.639 25.866 124.704 25.586C124.769 25.2967 124.685 24.8253 124.452 24.172L119.412 10.354H119.328L114.582 23.556C114.377 24.1253 114.321 24.592 114.414 24.956C114.507 25.3107 114.783 25.5953 115.24 25.81C115.697 26.0153 116.365 26.188 117.242 26.328V27H109.36ZM115.632 19.384V18.208H123.304V19.384H115.632Z" fill="#E6E6E6"/>
<path d="M4.693 32.073C5.187 32.073 5.61767 32.187 5.985 32.415C6.35233 32.6303 6.536 32.89 6.536 33.194C6.536 33.384 6.46633 33.5487 6.327 33.688C6.18767 33.8147 6.023 33.878 5.833 33.878C5.63033 33.878 5.46567 33.8147 5.339 33.688C5.225 33.5613 5.14267 33.365 5.092 33.099C5.016 32.7823 4.92733 32.5733 4.826 32.472C4.73733 32.3707 4.58533 32.32 4.37 32.32C3.8 32.32 3.382 32.6493 3.116 33.308C3.01467 33.574 2.945 33.8843 2.907 34.239C2.869 34.581 2.85 35.1003 2.85 35.797V37.944H4.617L4.522 38.248H2.85V45.658L4.503 45.848V46H0.456V45.848L1.615 45.696V38.248H0.342L0.437 37.944H1.615V36.842C1.615 35.9173 1.62767 35.2713 1.653 34.904C1.691 34.5367 1.75433 34.2327 1.843 33.992C2.05833 33.4347 2.432 32.9787 2.964 32.624C3.496 32.2567 4.07233 32.073 4.693 32.073ZM9.79821 37.754C10.0515 37.754 10.2669 37.8427 10.4442 38.02C10.6215 38.1847 10.7102 38.3873 10.7102 38.628C10.7102 38.8307 10.6405 39.0017 10.5012 39.141C10.3619 39.2803 10.1909 39.35 9.98821 39.35C9.86154 39.35 9.75388 39.3247 9.66521 39.274C9.58921 39.2107 9.50688 39.122 9.41821 39.008C9.32954 38.9067 9.24721 38.8307 9.17121 38.78C9.10788 38.7293 9.02554 38.704 8.92421 38.704C8.72154 38.704 8.51254 38.8243 8.29721 39.065C8.09454 39.3057 7.94888 39.5843 7.86021 39.901V45.696L9.38021 45.848V46H5.46621V45.848L6.62521 45.696V39.046L5.50421 38.628V38.495L7.65121 37.754H7.80321V39.426C8.51254 38.3113 9.17754 37.754 9.79821 37.754ZM15.2837 37.754C16.0184 37.754 16.6707 37.9313 17.2407 38.286C17.8107 38.6407 18.2541 39.141 18.5707 39.787C18.8874 40.4203 19.0457 41.1487 19.0457 41.972C19.0457 42.7953 18.8874 43.53 18.5707 44.176C18.2541 44.8093 17.8107 45.3033 17.2407 45.658C16.6707 46.0127 16.0184 46.19 15.2837 46.19C14.5491 46.19 13.8967 46.0127 13.3267 45.658C12.7567 45.3033 12.3134 44.8093 11.9967 44.176C11.6801 43.53 11.5217 42.7953 11.5217 41.972C11.5217 41.1487 11.6801 40.4203 11.9967 39.787C12.3134 39.141 12.7567 38.6407 13.3267 38.286C13.8967 37.9313 14.5491 37.754 15.2837 37.754ZM12.9277 41.972C12.9277 43.2387 13.1367 44.2267 13.5547 44.936C13.9727 45.6453 14.5491 46 15.2837 46C16.0184 46 16.5947 45.6453 17.0127 44.936C17.4307 44.2267 17.6397 43.2387 17.6397 41.972C17.6397 40.7053 17.4307 39.7173 17.0127 39.008C16.5947 38.2987 16.0184 37.944 15.2837 37.944C14.5491 37.944 13.9727 38.2987 13.5547 39.008C13.1367 39.7173 12.9277 40.7053 12.9277 41.972ZM28.2719 45.848V46H24.7379V45.848L25.8969 45.696V40.851C25.8969 40.357 25.8842 39.9897 25.8589 39.749C25.8335 39.5083 25.7829 39.3057 25.7069 39.141C25.6055 38.9257 25.4345 38.761 25.1939 38.647C24.9659 38.5203 24.6999 38.457 24.3959 38.457C23.7499 38.457 23.1735 38.7293 22.6669 39.274V45.696L23.8259 45.848V46H20.2729V45.848L21.4319 45.696V39.141L20.3109 38.723V38.59L22.4579 37.849H22.6099V39.046C23.4205 38.1847 24.2692 37.754 25.1559 37.754C25.5485 37.754 25.9032 37.8427 26.2199 38.02C26.5492 38.1847 26.7835 38.4063 26.9229 38.685C27.0115 38.8497 27.0685 39.0777 27.0939 39.369C27.1192 39.6477 27.1319 40.1417 27.1319 40.851V45.696L28.2719 45.848ZM29.0302 38.134L31.1202 36.12L31.1962 36.139V37.944H33.3622L33.2482 38.248H31.1962V44.062C31.1962 44.5053 31.2659 44.8347 31.4052 45.05C31.5572 45.354 31.8422 45.506 32.2602 45.506C32.4629 45.506 32.6592 45.4553 32.8492 45.354C33.0392 45.2527 33.2482 45.088 33.4762 44.86L33.5522 44.917C33.3622 45.3097 33.0899 45.62 32.7352 45.848C32.3932 46.076 32.0259 46.19 31.6332 46.19C31.2279 46.19 30.8669 46.076 30.5502 45.848C30.3349 45.696 30.1829 45.4997 30.0942 45.259C30.0056 45.0183 29.9612 44.7017 29.9612 44.309V38.229H29.0682L29.0302 38.134ZM40.8592 43.834L40.9352 43.872L40.8592 44.081C40.6059 44.7523 40.2259 45.2717 39.7192 45.639C39.2252 46.0063 38.6299 46.19 37.9332 46.19C37.2492 46.19 36.6412 46.0127 36.1092 45.658C35.5772 45.3033 35.1592 44.8093 34.8552 44.176C34.5639 43.5427 34.4182 42.8143 34.4182 41.991C34.4182 41.1677 34.5765 40.433 34.8932 39.787C35.2099 39.141 35.6595 38.6407 36.2422 38.286C36.8249 37.9313 37.4899 37.754 38.2372 37.754C39.1239 37.754 39.8015 38.02 40.2702 38.552C40.7515 39.0713 40.9985 39.8313 41.0112 40.832L40.8972 40.927H35.7672C35.7419 41.2563 35.7292 41.516 35.7292 41.706C35.7292 42.8587 35.9635 43.739 36.4322 44.347C36.9009 44.9423 37.5532 45.24 38.3892 45.24C38.8199 45.24 39.2315 45.145 39.6242 44.955C40.0295 44.7523 40.3842 44.4547 40.6882 44.062L40.8592 43.834ZM38.0282 37.963C37.4329 37.963 36.9389 38.21 36.5462 38.704C36.1535 39.198 35.9002 39.8693 35.7862 40.718L39.4722 40.585C39.5102 40.433 39.5292 40.1797 39.5292 39.825C39.5292 39.141 39.3962 38.6597 39.1302 38.381C38.8769 38.1023 38.5095 37.963 38.0282 37.963ZM50.1664 45.848V46H46.6324V45.848L47.7914 45.696V40.851C47.7914 40.357 47.7787 39.9897 47.7534 39.749C47.728 39.5083 47.6774 39.3057 47.6014 39.141C47.5 38.9257 47.329 38.761 47.0884 38.647C46.8604 38.5203 46.5944 38.457 46.2904 38.457C45.6444 38.457 45.068 38.7293 44.5614 39.274V45.696L45.7204 45.848V46H42.1674V45.848L43.3264 45.696V39.141L42.2054 38.723V38.59L44.3524 37.849H44.5044V39.046C45.315 38.1847 46.1637 37.754 47.0504 37.754C47.443 37.754 47.7977 37.8427 48.1144 38.02C48.4437 38.1847 48.678 38.4063 48.8174 38.685C48.9061 38.8497 48.963 39.0777 48.9884 39.369C49.0137 39.6477 49.0264 40.1417 49.0264 40.851V45.696L50.1664 45.848ZM55.7128 45.829C55.3074 46.0697 54.8641 46.19 54.3828 46.19C53.7874 46.19 53.2491 46.0127 52.7678 45.658C52.2864 45.3033 51.9064 44.822 51.6278 44.214C51.3618 43.5933 51.2288 42.8967 51.2288 42.124C51.2288 41.2753 51.3934 40.5217 51.7227 39.863C52.0648 39.1917 52.5398 38.6723 53.1478 38.305C53.7684 37.9377 54.4714 37.754 55.2568 37.754C55.7508 37.754 56.2448 37.83 56.7388 37.982V33.593L55.6178 33.175V33.042L57.8218 32.301H57.9738V44.822L59.0188 45.05V45.145L56.9478 46.095H56.8338V44.803L56.7768 44.784C56.4854 45.24 56.1308 45.5883 55.7128 45.829ZM53.2238 44.48C53.6671 45.1133 54.2751 45.43 55.0478 45.43C55.4151 45.43 55.7444 45.354 56.0358 45.202C56.3398 45.0373 56.5741 44.8157 56.7388 44.537V39.673C56.7388 39.1157 56.6058 38.6913 56.3398 38.4C56.0864 38.096 55.7191 37.944 55.2378 37.944C54.4398 37.944 53.7938 38.305 53.2998 39.027C52.8184 39.7363 52.5778 40.68 52.5778 41.858C52.5778 42.96 52.7931 43.834 53.2238 44.48ZM69.2391 45.829C68.8338 46.0697 68.3905 46.19 67.9091 46.19C67.3138 46.19 66.7755 46.0127 66.2941 45.658C65.8128 45.3033 65.4328 44.822 65.1541 44.214C64.8881 43.5933 64.7551 42.8967 64.7551 42.124C64.7551 41.2753 64.9198 40.5217 65.2491 39.863C65.5911 39.1917 66.0661 38.6723 66.6741 38.305C67.2948 37.9377 67.9978 37.754 68.7831 37.754C69.2771 37.754 69.7711 37.83 70.2651 37.982V33.593L69.1441 33.175V33.042L71.3481 32.301H71.5001V44.822L72.5451 45.05V45.145L70.4741 46.095H70.3601V44.803L70.3031 44.784C70.0118 45.24 69.6571 45.5883 69.2391 45.829ZM66.7501 44.48C67.1935 45.1133 67.8015 45.43 68.5741 45.43C68.9415 45.43 69.2708 45.354 69.5621 45.202C69.8661 45.0373 70.1005 44.8157 70.2651 44.537V39.673C70.2651 39.1157 70.1321 38.6913 69.8661 38.4C69.6128 38.096 69.2455 37.944 68.7641 37.944C67.9661 37.944 67.3201 38.305 66.8261 39.027C66.3448 39.7363 66.1041 40.68 66.1041 41.858C66.1041 42.96 66.3195 43.834 66.7501 44.48ZM80.158 43.834L80.234 43.872L80.158 44.081C79.9047 44.7523 79.5247 45.2717 79.018 45.639C78.524 46.0063 77.9287 46.19 77.232 46.19C76.548 46.19 75.94 46.0127 75.408 45.658C74.876 45.3033 74.458 44.8093 74.154 44.176C73.8627 43.5427 73.717 42.8143 73.717 41.991C73.717 41.1677 73.8754 40.433 74.192 39.787C74.5087 39.141 74.9584 38.6407 75.541 38.286C76.1237 37.9313 76.7887 37.754 77.536 37.754C78.4227 37.754 79.1004 38.02 79.569 38.552C80.0504 39.0713 80.2974 39.8313 80.31 40.832L80.196 40.927H75.066C75.0407 41.2563 75.028 41.516 75.028 41.706C75.028 42.8587 75.2624 43.739 75.731 44.347C76.1997 44.9423 76.852 45.24 77.688 45.24C78.1187 45.24 78.5304 45.145 78.923 44.955C79.3284 44.7523 79.683 44.4547 79.987 44.062L80.158 43.834ZM77.327 37.963C76.7317 37.963 76.2377 38.21 75.845 38.704C75.4524 39.198 75.199 39.8693 75.085 40.718L78.771 40.585C78.809 40.433 78.828 40.1797 78.828 39.825C78.828 39.141 78.695 38.6597 78.429 38.381C78.1757 38.1023 77.8084 37.963 77.327 37.963ZM87.6103 39.103L85.2353 46.057H84.8553L82.0623 38.894C81.9483 38.6027 81.8027 38.4063 81.6253 38.305C81.4607 38.191 81.163 38.1213 80.7323 38.096V37.944H84.3993V38.096C83.9433 38.1213 83.6457 38.1593 83.5063 38.21C83.3797 38.248 83.3163 38.3177 83.3163 38.419C83.3163 38.495 83.3607 38.6597 83.4493 38.913L85.4253 44.518H85.5013L87.2113 39.388C87.2873 39.1347 87.3253 38.9383 87.3253 38.799C87.3253 38.5963 87.2303 38.4507 87.0403 38.362C86.8503 38.2607 86.502 38.172 85.9953 38.096V37.944H89.3963V38.096C88.8137 38.1593 88.3957 38.267 88.1423 38.419C87.889 38.5583 87.7117 38.7863 87.6103 39.103ZM95.9666 43.834L96.0426 43.872L95.9666 44.081C95.7133 44.7523 95.3333 45.2717 94.8266 45.639C94.3326 46.0063 93.7373 46.19 93.0406 46.19C92.3566 46.19 91.7486 46.0127 91.2166 45.658C90.6846 45.3033 90.2666 44.8093 89.9626 44.176C89.6713 43.5427 89.5256 42.8143 89.5256 41.991C89.5256 41.1677 89.684 40.433 90.0006 39.787C90.3173 39.141 90.767 38.6407 91.3496 38.286C91.9323 37.9313 92.5973 37.754 93.3446 37.754C94.2313 37.754 94.909 38.02 95.3776 38.552C95.859 39.0713 96.106 39.8313 96.1186 40.832L96.0046 40.927H90.8746C90.8493 41.2563 90.8366 41.516 90.8366 41.706C90.8366 42.8587 91.071 43.739 91.5396 44.347C92.0083 44.9423 92.6606 45.24 93.4966 45.24C93.9273 45.24 94.339 45.145 94.7316 44.955C95.137 44.7523 95.4916 44.4547 95.7956 44.062L95.9666 43.834ZM93.1356 37.963C92.5403 37.963 92.0463 38.21 91.6536 38.704C91.261 39.198 91.0076 39.8693 90.8936 40.718L94.5796 40.585C94.6176 40.433 94.6366 40.1797 94.6366 39.825C94.6366 39.141 94.5036 38.6597 94.2376 38.381C93.9843 38.1023 93.617 37.963 93.1356 37.963ZM99.5358 32.301V45.696L100.695 45.848V46H97.1418V45.848L98.3008 45.696V33.593L97.1798 33.175V33.042L99.3838 32.301H99.5358ZM105.552 37.754C106.287 37.754 106.939 37.9313 107.509 38.286C108.079 38.6407 108.523 39.141 108.839 39.787C109.156 40.4203 109.314 41.1487 109.314 41.972C109.314 42.7953 109.156 43.53 108.839 44.176C108.523 44.8093 108.079 45.3033 107.509 45.658C106.939 46.0127 106.287 46.19 105.552 46.19C104.818 46.19 104.165 46.0127 103.595 45.658C103.025 45.3033 102.582 44.8093 102.265 44.176C101.949 43.53 101.79 42.7953 101.79 41.972C101.79 41.1487 101.949 40.4203 102.265 39.787C102.582 39.141 103.025 38.6407 103.595 38.286C104.165 37.9313 104.818 37.754 105.552 37.754ZM103.196 41.972C103.196 43.2387 103.405 44.2267 103.823 44.936C104.241 45.6453 104.818 46 105.552 46C106.287 46 106.863 45.6453 107.281 44.936C107.699 44.2267 107.908 43.2387 107.908 41.972C107.908 40.7053 107.699 39.7173 107.281 39.008C106.863 38.2987 106.287 37.944 105.552 37.944C104.818 37.944 104.241 38.2987 103.823 39.008C103.405 39.7173 103.196 40.7053 103.196 41.972ZM114.36 46.19C113.841 46.19 113.322 46.076 112.802 45.848V50.104L114.512 50.313V50.446H110.408V50.294L111.567 50.142V39.046L110.446 38.628V38.495L112.593 37.754H112.745V39.103H112.821C113.1 38.685 113.455 38.3557 113.885 38.115C114.329 37.8743 114.797 37.754 115.291 37.754C115.849 37.754 116.355 37.925 116.811 38.267C117.267 38.609 117.622 39.084 117.875 39.692C118.129 40.3 118.255 40.984 118.255 41.744C118.255 42.6053 118.091 43.3717 117.761 44.043C117.432 44.7143 116.97 45.24 116.374 45.62C115.779 46 115.108 46.19 114.36 46.19ZM113.296 45.601C113.638 45.867 114.037 46 114.493 46C114.949 46 115.355 45.829 115.709 45.487C116.077 45.145 116.362 44.67 116.564 44.062C116.767 43.454 116.868 42.77 116.868 42.01C116.868 40.8953 116.659 40.0023 116.241 39.331C115.823 38.6597 115.266 38.324 114.569 38.324C114.177 38.324 113.822 38.4253 113.505 38.628C113.189 38.8307 112.954 39.1093 112.802 39.464V44.651C112.802 45.0183 112.967 45.335 113.296 45.601ZM126.229 43.834L126.305 43.872L126.229 44.081C125.976 44.7523 125.596 45.2717 125.089 45.639C124.595 46.0063 124 46.19 123.303 46.19C122.619 46.19 122.011 46.0127 121.479 45.658C120.947 45.3033 120.529 44.8093 120.225 44.176C119.934 43.5427 119.788 42.8143 119.788 41.991C119.788 41.1677 119.947 40.433 120.263 39.787C120.58 39.141 121.03 38.6407 121.612 38.286C122.195 37.9313 122.86 37.754 123.607 37.754C124.494 37.754 125.172 38.02 125.64 38.552C126.122 39.0713 126.369 39.8313 126.381 40.832L126.267 40.927H121.137C121.112 41.2563 121.099 41.516 121.099 41.706C121.099 42.8587 121.334 43.739 121.802 44.347C122.271 44.9423 122.923 45.24 123.759 45.24C124.19 45.24 124.602 45.145 124.994 44.955C125.4 44.7523 125.754 44.4547 126.058 44.062L126.229 43.834ZM123.398 37.963C122.803 37.963 122.309 38.21 121.916 38.704C121.524 39.198 121.27 39.8693 121.156 40.718L124.842 40.585C124.88 40.433 124.899 40.1797 124.899 39.825C124.899 39.141 124.766 38.6597 124.5 38.381C124.247 38.1023 123.88 37.963 123.398 37.963ZM131.87 37.754C132.123 37.754 132.338 37.8427 132.516 38.02C132.693 38.1847 132.782 38.3873 132.782 38.628C132.782 38.8307 132.712 39.0017 132.573 39.141C132.433 39.2803 132.262 39.35 132.06 39.35C131.933 39.35 131.825 39.3247 131.737 39.274C131.661 39.2107 131.578 39.122 131.49 39.008C131.401 38.9067 131.319 38.8307 131.243 38.78C131.179 38.7293 131.097 38.704 130.996 38.704C130.793 38.704 130.584 38.8243 130.369 39.065C130.166 39.3057 130.02 39.5843 129.932 39.901V45.696L131.452 45.848V46H127.538V45.848L128.697 45.696V39.046L127.576 38.628V38.495L129.723 37.754H129.875V39.426C130.584 38.3113 131.249 37.754 131.87 37.754Z" fill="#E6E6E6"/>
</svg>
