<?xml version="1.0" encoding="UTF-8"?>
<svg xmlns="http://www.w3.org/2000/svg" width="158" height="15" viewBox="0 0 158 15" fill="none">
  <path d="M137.813 0H135.311C134.862 0 134.459 0.280682 134.305 0.706385L129.458 14.0154C129.332 14.3616 129.589 14.7359 129.964 14.7359H132.466C132.915 14.7359 133.318 14.4552 133.472 14.0295L138.319 0.72042C138.445 0.369566 138.188 0 137.813 0Z" fill="black"></path>
  <path d="M105.422 5.54817L104.085 9.22044C103.701 10.2777 102.695 10.9841 101.568 10.9841H94.3215C93.3905 10.9841 92.745 10.0578 93.0631 9.18301L94.401 5.51074C94.7846 4.4535 95.7904 3.74712 96.9178 3.74712H104.164C105.095 3.7518 105.741 4.67337 105.422 5.54817ZM105.722 0H97.0815C94.2653 0 91.7486 1.75895 90.7896 4.40672L88.9932 9.34207C88.0389 11.9618 89.9803 14.7359 92.7684 14.7359H101.409C104.225 14.7359 106.742 12.9769 107.701 10.3291L109.497 5.39379C110.456 2.77408 108.51 0 105.722 0Z" fill="black"></path>
  <path d="M157.017 0H141.359C140.906 0 140.499 0.285361 140.344 0.711064L139.497 3.03138C139.371 3.38223 139.628 3.7518 140.003 3.7518H145.294C145.663 3.7518 145.925 4.12136 145.799 4.47222L142.323 14.0201C142.197 14.371 142.454 14.7405 142.828 14.7405H145.326C145.78 14.7405 146.187 14.4552 146.341 14.0295L149.822 4.46754C149.976 4.04184 150.383 3.75647 150.837 3.75647H155.665C156.119 3.75647 156.526 3.47111 156.68 3.04541L157.527 0.725097C157.648 0.369566 157.386 0 157.017 0Z" fill="black"></path>
  <path d="M59.7882 0.3836L54.764 6.35279L54.1886 0.959C54.1277 0.416346 53.6693 0 53.122 0H47.1574C46.7084 0 46.306 0.280682 46.1517 0.706385L41.3052 14.0154C41.1789 14.3663 41.4362 14.7359 41.8104 14.7359H44.3132C44.7623 14.7359 45.1646 14.4552 45.319 14.0295L48.9304 4.10265C49.0053 3.89214 49.2111 3.7518 49.4357 3.7518H50.0906C50.3619 3.7518 50.5911 3.95763 50.6239 4.22896L51.2741 10.0344C51.3349 10.5771 51.7934 10.9841 52.3407 10.9841H55.2552C55.5733 10.9841 55.8727 10.8437 56.0738 10.6005L61.6688 3.93892C61.7717 3.81729 61.9214 3.74712 62.0804 3.74712H63.0628C63.2546 3.74712 63.3856 3.94827 63.3061 4.12604L59.7367 14.0154C59.6104 14.3663 59.8677 14.7359 60.2419 14.7359H62.7494C63.1985 14.7359 63.6008 14.4552 63.7552 14.0295L68.6016 0.72042C68.7279 0.369566 68.4706 0 68.0964 0H60.6162C60.2887 0 59.9893 0.140341 59.7882 0.3836Z" fill="black"></path>
  <path d="M75.7965 3.75176H82.9071C83.838 3.75176 84.4836 4.67801 84.1655 5.54813L84.0953 5.73993C83.7117 6.79717 82.7059 7.50355 81.5785 7.50355H75.324C74.8749 7.50355 74.4726 7.78424 74.3182 8.20994L73.4715 10.5349C73.3452 10.8858 73.6024 11.2554 73.9767 11.2554H81.4242C84.2403 11.2554 86.7525 9.4964 87.7161 6.84863L88.2447 5.39843C89.1991 2.77872 87.2577 0.00463867 84.4696 0.00463867H75.9602C73.144 0.00463867 70.6319 1.76359 69.6682 4.41136L66.169 14.0201C66.0427 14.3709 66.3 14.7405 66.6743 14.7405H69.177C69.6261 14.7405 70.0284 14.4598 70.1828 14.0341L73.2797 5.52006C73.6633 4.45346 74.669 3.75176 75.7965 3.75176Z" fill="black"></path>
  <path d="M38.2504 0H28.8476C26.9997 0 25.2361 0.762521 23.9684 2.1098L16.8063 9.72099C16.0484 10.5256 14.9865 10.9841 13.8778 10.9841H5.58362C4.65268 10.9841 4.00711 10.0578 4.32522 9.18769L5.65846 5.51542C6.04206 4.4535 7.05252 3.7518 8.17526 3.7518H15.8987C16.2917 3.7518 16.6753 3.81261 17.0448 3.92956C17.2413 3.99038 17.4612 3.94827 17.6015 3.7939L19.5757 1.69813C19.8142 1.44552 19.7581 1.03385 19.4587 0.865439C18.6354 0.402312 17.536 0 16.1747 0H8.33431C5.51812 0 3.00601 1.75895 2.04233 4.40672L0.245961 9.34207C-0.708362 11.9618 1.23303 14.7359 4.02115 14.7359H14.1538C16.0016 14.7359 17.7653 13.9733 19.033 12.6307L26.1998 5.01955C26.9576 4.21025 28.0195 3.75647 29.1236 3.75647H36.6926C37.6236 3.75647 38.2691 4.68273 37.951 5.55285L36.6131 9.22512C36.2295 10.2824 35.2237 10.9887 34.0963 10.9887H27.7763C26.4477 10.9887 25.5542 10.3666 25.0537 9.91279C24.8385 9.71631 24.5157 9.73034 24.3145 9.94086C23.8233 10.4554 23.0047 11.3302 22.5462 11.8214C22.3544 12.0273 22.3544 12.3454 22.5509 12.5512L22.6257 12.6261C23.8935 13.9687 25.6571 14.7312 27.505 14.7312H33.942C36.7581 14.7312 39.2749 12.9722 40.2339 10.3245L42.0303 5.38911C42.9799 2.77408 41.0386 0 38.2504 0Z" fill="black"></path>
  <path d="M118.058 3.75176H125.37C126.291 3.75176 127.143 4.06987 127.802 4.64059C127.999 4.809 128.308 4.77157 128.513 4.57509L130.469 2.67581C130.689 2.46062 130.712 2.12847 130.516 1.92264C129.898 1.26304 128.397 0.00463867 125.978 0.00463867H118.549C115.733 0.00463867 113.576 0.940249 112.58 2.89567C112.365 3.32138 112.145 3.7424 111.949 4.17746C111.05 6.25451 112.29 7.91054 114.241 8.25204C115.658 8.49998 117.375 8.72453 119.368 8.99117C121.431 9.2625 123.246 9.48705 123.686 9.55254C124.285 9.62271 124.537 9.80983 124.336 10.2402C123.966 11.0355 123.297 10.9747 122.076 10.9934H114.765C113.848 10.9934 112.992 10.6706 112.332 10.1045C112.14 9.93614 111.827 9.97357 111.621 10.17L109.666 12.0693C109.446 12.2845 109.422 12.6167 109.619 12.8225C110.236 13.4821 111.738 14.7405 114.157 14.7405H121.585C124.401 14.7405 126.558 13.8049 127.559 11.8495C127.774 11.4238 127.994 11.0027 128.191 10.5677C129.089 8.49062 127.849 6.83459 125.898 6.4931C124.481 6.24516 122.764 6.02061 120.771 5.75864C118.713 5.48731 116.893 5.26277 116.453 5.19728C115.855 5.1271 115.602 4.93998 115.803 4.5096C116.168 3.71433 116.837 3.77515 118.058 3.75176Z" fill="black"></path>
</svg>
