<svg width="111" height="24" viewBox="0 0 111 24" fill="none" xmlns="http://www.w3.org/2000/svg">
<path d="M8.092 23.224C6.72933 23.224 5.516 22.9907 4.452 22.524C3.388 22.0573 2.548 21.4227 1.932 20.62C1.316 19.7987 0.970667 18.884 0.896 17.876H5.628C5.684 18.4173 5.936 18.856 6.384 19.192C6.832 19.528 7.38267 19.696 8.036 19.696C8.63333 19.696 9.09067 19.584 9.408 19.36C9.744 19.1173 9.912 18.8093 9.912 18.436C9.912 17.988 9.67867 17.6613 9.212 17.456C8.74533 17.232 7.98933 16.9893 6.944 16.728C5.824 16.4667 4.89067 16.196 4.144 15.916C3.39733 15.6173 2.75333 15.16 2.212 14.544C1.67067 13.9093 1.4 13.06 1.4 11.996C1.4 11.1 1.64267 10.288 2.128 9.56C2.632 8.81333 3.36 8.22533 4.312 7.796C5.28267 7.36667 6.43067 7.152 7.756 7.152C9.716 7.152 11.256 7.63733 12.376 8.608C13.5147 9.57867 14.168 10.8667 14.336 12.472H9.912C9.83733 11.9307 9.59467 11.5013 9.184 11.184C8.792 10.8667 8.26933 10.708 7.616 10.708C7.056 10.708 6.62667 10.82 6.328 11.044C6.02933 11.2493 5.88 11.5387 5.88 11.912C5.88 12.36 6.11333 12.696 6.58 12.92C7.06533 13.144 7.812 13.368 8.82 13.592C9.97733 13.8907 10.92 14.1893 11.648 14.488C12.376 14.768 13.0107 15.2347 13.552 15.888C14.112 16.5227 14.4013 17.3813 14.42 18.464C14.42 19.3787 14.1587 20.2 13.636 20.928C13.132 21.6373 12.3947 22.1973 11.424 22.608C10.472 23.0187 9.36133 23.224 8.092 23.224ZM28.0533 7.208C29.8453 7.208 31.2826 7.80533 32.3653 9C33.4479 10.176 33.9893 11.8 33.9893 13.872V23H29.2293V14.516C29.2293 13.4707 28.9586 12.6587 28.4173 12.08C27.8759 11.5013 27.1479 11.212 26.2333 11.212C25.3186 11.212 24.5906 11.5013 24.0493 12.08C23.5079 12.6587 23.2373 13.4707 23.2373 14.516V23H18.4493V2.28H23.2373V9.476C23.7226 8.78533 24.3853 8.23467 25.2253 7.824C26.0653 7.41333 27.0079 7.208 28.0533 7.208ZM40.8245 5.752C39.9845 5.752 39.2938 5.50933 38.7525 5.024C38.2298 4.52 37.9685 3.904 37.9685 3.176C37.9685 2.42933 38.2298 1.81333 38.7525 1.328C39.2938 0.823998 39.9845 0.571998 40.8245 0.571998C41.6458 0.571998 42.3178 0.823998 42.8405 1.328C43.3818 1.81333 43.6525 2.42933 43.6525 3.176C43.6525 3.904 43.3818 4.52 42.8405 5.024C42.3178 5.50933 41.6458 5.752 40.8245 5.752ZM43.2045 7.376V23H38.4165V7.376H43.2045ZM52.5623 2.28V23H47.7743V2.28H52.5623ZM64.2441 23.224C62.7134 23.224 61.3321 22.8973 60.1001 22.244C58.8868 21.5907 57.9254 20.6573 57.2161 19.444C56.5254 18.2307 56.1801 16.812 56.1801 15.188C56.1801 13.5827 56.5348 12.1733 57.2441 10.96C57.9534 9.728 58.9241 8.78533 60.1561 8.132C61.3881 7.47867 62.7694 7.152 64.3001 7.152C65.8308 7.152 67.2121 7.47867 68.4441 8.132C69.6761 8.78533 70.6468 9.728 71.3561 10.96C72.0654 12.1733 72.4201 13.5827 72.4201 15.188C72.4201 16.7933 72.0561 18.212 71.3281 19.444C70.6188 20.6573 69.6388 21.5907 68.3881 22.244C67.1561 22.8973 65.7748 23.224 64.2441 23.224ZM64.2441 19.08C65.1588 19.08 65.9334 18.744 66.5681 18.072C67.2214 17.4 67.5481 16.4387 67.5481 15.188C67.5481 13.9373 67.2308 12.976 66.5961 12.304C65.9801 11.632 65.2148 11.296 64.3001 11.296C63.3668 11.296 62.5921 11.632 61.9761 12.304C61.3601 12.9573 61.0521 13.9187 61.0521 15.188C61.0521 16.4387 61.3508 17.4 61.9481 18.072C62.5641 18.744 63.3294 19.08 64.2441 19.08ZM83.0882 18.52L86.4762 7.376H91.5722L86.0282 23H80.1202L74.5762 7.376H79.7002L83.0882 18.52ZM93.7356 15.16C93.7356 13.5547 94.0342 12.1453 94.6316 10.932C95.2476 9.71867 96.0782 8.78533 97.1236 8.132C98.1689 7.47867 99.3356 7.152 100.624 7.152C101.725 7.152 102.686 7.376 103.508 7.824C104.348 8.272 104.992 8.86 105.44 9.588V7.376H110.228V23H105.44V20.788C104.973 21.516 104.32 22.104 103.48 22.552C102.658 23 101.697 23.224 100.596 23.224C99.3262 23.224 98.1689 22.8973 97.1236 22.244C96.0782 21.572 95.2476 20.6293 94.6316 19.416C94.0342 18.184 93.7356 16.7653 93.7356 15.16ZM105.44 15.188C105.44 13.9933 105.104 13.0507 104.432 12.36C103.778 11.6693 102.976 11.324 102.024 11.324C101.072 11.324 100.26 11.6693 99.5876 12.36C98.9342 13.032 98.6076 13.9653 98.6076 15.16C98.6076 16.3547 98.9342 17.3067 99.5876 18.016C100.26 18.7067 101.072 19.052 102.024 19.052C102.976 19.052 103.778 18.7067 104.432 18.016C105.104 17.3253 105.44 16.3827 105.44 15.188Z" fill="#EDEDED"/>
</svg>
